# xmcd
#
# Track frame offsets:
#	150
#	26065
#	47580
#	69898
#	92765
#	113308
#	135918
#	156063
#	177320
#	199915
#
# Disc length: 2944 seconds
#
# Revision: 2
# Processed by: cddbd v1.5.2PL0 Copyright (c) Steve Scherf et al.
# Submitted via: EasyCDDAExtractor 11.1.0.1
#
DISCID=750b7e0a
DTITLE=Bobby 'Blue' Bland - Years Of Tears
DYEAR=1993
DGENRE=Blues
TTITLE0=Somewhere Between Right And Wrong
TTITLE1=There's A Stranger In My House
TTITLE2=Hole In The Wall
TTITLE3=Years Of Tears To Go
TTITLE4=Hurtin' Time Again
TTITLE5=I Just Tripped On A Piece Of Your Broken Heart
TTITLE6=Sweet Lady Love
TTITLE7=Love Of Mine
TTITLE8=I've Got To Have Your Love Tonight
TTITLE9=You Put The Hurt On A Hurtin' Man
EXTD=
EXTT0=
EXTT1=
EXTT2=
EXTT3=
EXTT4=
EXTT5=
EXTT6=
EXTT7=
EXTT8=
EXTT9=
PLAYORDER=
